# ProBuilder 4.0.4
# https://unity3d.com/unity/features/worldbuilding/probuilder
# 29.03.2019 17:32:13

mtllib ./Column_Facade2.mtl
o Column Facade2

g Column Facade
v 0 0 0.25
v -0.25 0 0.25
v 0 3 0.25
v -0.25 3 0.25
v -0.25 0 0
v -0.25 3 0
v 0 0 0
v 0 3 0

vt -0.5 -0.25
vt -0.75 -0.25
vt -0.5 2.75
vt -0.75 2.75
vt -1 -0.25
vt -1 2.75
vt 0.75 -0.25
vt 0.5 -0.25
vt 0.75 2.75
vt 0.5 2.75
vt 1 -0.25
vt 1 2.75
vt 0.5 -0.75
vt 0.75 -0.75
vt 0.5 -1
vt 0.75 -1
vt -0.5 -1
vt -0.75 -1
vt -0.5 -0.75
vt -0.75 -0.75

vn 0 0 1
vn -1 0 0
vn 0 0 -1
vn 1 0 0
vn 0 1 0
vn 0 -1 0

g Column Facade
usemtl ProBuilderDefault
f 3/3/1 4/4/1 2/2/1 1/1/1
f 4/4/2 6/6/2 5/5/2 2/2/2
f 6/9/3 8/10/3 7/8/3 5/7/3
f 8/12/4 3/9/4 1/7/4 7/11/4
f 8/15/5 6/16/5 4/14/5 3/13/5
f 1/19/6 2/20/6 5/18/6 7/17/6

