# ProBuilder 4.0.4
# https://unity3d.com/unity/features/worldbuilding/probuilder
# 29.03.2019 17:33:06

mtllib ./Cornice2.mtl
o Cornice2

g Cornice
v 1 0 0.0625
v -1 0 0.0625
v 1 0.3125 0.0625
v -1 0.3125 0.0625
v -1 0 -0.1875
v -1 0.3125 -0.1875
v 1 0 -0.1875
v 1 0.3125 -0.1875

vt 1 0
vt -1 0
vt 1 0.3125
vt -1 0.3125
vt -0.6875 0
vt -0.9375 0
vt -0.6875 0.3125
vt -0.9375 0.3125
vt 0.9375 0
vt 0.6875 0
vt 0.9375 0.3125
vt 0.6875 0.3125
vt -1 -0.6875
vt 1 -0.6875
vt -1 -0.9375
vt 1 -0.9375

vn 0 0 1
vn -1 0 0
vn 0 0 -1
vn 1 0 0
vn 0 1 0
vn 0 -1 0

g Cornice
usemtl ProBuilderDefault
f 3/3/1 4/4/1 2/2/1 1/1/1
f 4/7/2 6/8/2 5/6/2 2/5/2
f 6/3/3 8/4/3 7/2/3 5/1/3
f 8/11/4 3/12/4 1/10/4 7/9/4
f 8/15/5 6/16/5 4/14/5 3/13/5
f 1/14/6 2/13/6 5/15/6 7/16/6

