# ProBuilder 4.0.5
# https://unity3d.com/unity/features/worldbuilding/probuilder
# 01.06.2019 14:43:21

mtllib ./External_Door.mtl
o External Door

g Cube
v -0.125 0 0
v -0.125 0 -3
v -0.125 0.125 -0.473181
v -0.125 0.125 -2.526819
v -0.125 3 0
v -0.125 2.526819 -0.473181
v -0.125 3 -3
v -0.125 2.526819 -2.526819
v 0.125 0 -3
v 0.125 0 0
v 0.1250685 0.125 -2.526819
v 0.1250685 0.125 -0.473181
v 0.125 3 -3
v 0.1250685 2.526819 -2.526819
v 0.125 3 0
v 0.1250685 2.526819 -0.473181
v 0.1249 0.125 -0.473181
v 0.1249 2.526819 -0.473181
v 0.1249 2.526819 -2.526819
v 0.1249 0.125 -2.526819
v 0.0001000017 0.1249999 -0.473181
v 0.0001000017 0.1249999 -2.526819

vt 0 0
vt -3 0
vt -0.473181 0.125
vt -2.526819 0.125
vt 0 3
vt -0.473181 2.526819
vt -3 3
vt -2.526819 2.526819
vt 3 0
vt 2.526819 0.125
vt 0.473181 0.125
vt 3 3
vt 2.526819 2.526819
vt 0.473181 2.526819
vt 0.25 0.125
vt 0.25 2.526819
vt 9.998679E-05 0.125
vt 9.998679E-05 2.526819
vt -0.25 -0.473181
vt -0.25 -2.526819
vt -9.998679E-05 -0.473181
vt -9.998679E-05 -2.526819
vt -0.25 2.526819
vt -0.25 0.125
vt 0.1248999 -0.473181
vt 0.1248999 -2.526819

vn -1 0 0
vn 0.9999998 -0.0005476474 0
vn 1 0 -0.0001446718
vn 0 0 -1
vn 0 -1 0
vn 0 0 1
vn -4.173378E-07 1 0

g Cube
usemtl ProBuilderDefault
f 3/3/1 4/4/1 2/2/1 1/1/1
f 6/6/1 3/3/1 1/1/1 5/5/1
f 4/4/1 8/8/1 7/7/1 2/2/1
f 8/8/1 6/6/1 5/5/1 7/7/1
f 11/10/2 12/11/2 10/1/2 9/9/2
f 14/13/3 11/10/3 9/9/3 13/12/3
f 12/11/3 16/14/3 15/5/3 10/1/3
f 16/14/3 14/13/3 13/12/3 15/5/3
f 18/18/4 17/17/4 3/15/4 6/16/4
f 19/22/5 18/21/5 6/19/5 8/20/5
f 20/17/6 19/18/6 8/23/6 4/24/6
f 22/26/7 21/25/7 12/21/7 11/22/7

