# ProBuilder 4.0.5
# https://unity3d.com/unity/features/worldbuilding/probuilder
# 01.06.2019 14:52:46

mtllib ./Window.mtl
o Window

g Cube
v -0.125 0 0
v -0.125 0 -3
v -0.125 0.9845583 -0.7345583
v -0.125 0.9845583 -2.265442
v -0.125 3 0
v -0.125 2.515442 -0.7345583
v -0.125 3 -3
v -0.125 2.515442 -2.265442
v 0.125 0 -3
v 0.125 0 0
v 0.125051 0.9845583 -2.265442
v 0.125051 0.9845583 -0.7345583
v 0.125 3 -3
v 0.125051 2.515442 -2.265442
v 0.125 3 0
v 0.125051 2.515442 -0.7345583
v 0.1249 0.9845583 -0.7345583
v 0.1249 0.9845583 -2.265442
v 0.1249 2.515442 -0.7345583
v 0.1249 2.515442 -2.265442
v 0.0001000017 3 0
v 0.0001000017 3 -3

vt 0 0
vt -3 0
vt -0.7345583 0.9845583
vt -2.265442 0.9845583
vt 0 3
vt -0.7345583 2.515442
vt -3 3
vt -2.265442 2.515442
vt 3 0
vt 2.265442 0.9845583
vt 0.7345583 0.9845583
vt 3 3
vt 2.265442 2.515442
vt 0.7345583 2.515442
vt 0.25 -0.7345583
vt 0.25 -2.265442
vt 9.998679E-05 -0.7345583
vt 9.998679E-05 -2.265442
vt 0.25 2.515442
vt 0.25 0.9845583
vt 9.998679E-05 2.515442
vt 9.998679E-05 0.9845583
vt -0.25 0.9845583
vt -0.25 2.515442
vt -0.25 -2.265442
vt -0.25 -0.7345583
vt 0 -3
vt 0.1249 0
vt 0.1249 -3

vn -1 0 0
vn 1 -5.183692E-05 0
vn 0 1 0
vn 0 0 -1
vn 0 0 1
vn 0 -1 0

g Cube
usemtl ProBuilderDefault
f 3/3/1 4/4/1 2/2/1 1/1/1
f 6/6/1 3/3/1 1/1/1 5/5/1
f 4/4/1 8/8/1 7/7/1 2/2/1
f 8/8/1 6/6/1 5/5/1 7/7/1
f 11/10/2 12/11/2 10/1/2 9/9/2
f 14/13/2 11/10/2 9/9/2 13/12/2
f 12/11/2 16/14/2 15/5/2 10/1/2
f 16/14/2 14/13/2 13/12/2 15/5/2
f 17/17/3 18/18/3 4/16/3 3/15/3
f 19/21/4 17/22/4 3/20/4 6/19/4
f 18/22/5 20/21/5 8/24/5 4/23/5
f 20/18/6 19/17/6 6/26/6 8/25/6
f 22/29/3 21/28/3 15/1/3 13/27/3

