# ProBuilder 4.0.5
# https://unity3d.com/unity/features/worldbuilding/probuilder
# 01.06.2019 15:24:26

mtllib ./WindowProp.mtl
o WindowProp

g Cube
v -0.0625 0.984375 -0.734375
v -0.0625 0.984375 -2.265625
v -0.0625 1.168125 -0.918125
v -0.0625 1.168125 -2.081875
v -0.0625 2.515625 -0.734375
v -0.0625 2.331875 -0.918125
v -0.0625 2.515625 -2.265625
v -0.0625 2.331875 -2.081875
v 0.0625 0.984375 -2.265625
v 0.0625 0.984375 -0.734375
v 0.062576 1.168125 -2.081875
v 0.062576 1.168125 -0.918125
v 0.0625 2.515625 -2.265625
v 0.062576 2.331875 -2.081875
v 0.0625 2.515625 -0.734375
v 0.062576 2.331875 -0.918125
v -0.0001000017 1.168125 -0.918125
v -0.0001000017 1.168125 -2.081875
v -0.0001000017 2.331875 -0.918125
v -0.0625 2.313858 -1.46865
v -0.0625 2.342392 -1.46865
v -0.0001000017 2.313858 -1.46865
v -0.0001000017 2.342392 -1.46865
v -0.0001000017 2.331875 -2.081875
v 0.0624 1.168125 -0.918125
v 0.0624 1.168125 -2.081875
v 0.0624 2.331875 -0.918125
v 0.0624 2.313858 -1.46865
v 0.0624 2.342392 -1.46865
v 0.0624 2.331875 -2.081875
v -0.0625 1.735733 -2.081775
v -0.0625 1.764267 -2.081775
v -0.0001000017 1.735733 -2.081775
v -0.0001000017 1.764267 -2.081775
v 0.0624 1.735733 -2.081775
v 0.0624 1.764267 -2.081775
v -0.0625 1.735733 -1.5
v -0.0625 1.764267 -1.5
v -0.0001000017 1.735733 -1.5
v -0.0001000017 1.764267 -1.5
v 0.0624 1.735733 -1.5
v 0.0624 1.764267 -1.5
v -0.0625 1.938858 -1.4999
v -0.0625 1.967392 -1.4999
v -0.0001000017 1.148437 -1.46885
v -0.0625 1.148437 -1.46885
v -0.0001000017 1.351562 -1.46875
v -0.0625 1.351562 -1.46875
v -0.0001000017 1.967392 -1.4999
v 0.0624 1.148437 -1.46885
v 0.0624 1.351562 -1.46875
v 0.0624 1.967392 -1.4999
v 0.0624 1.938858 -1.4999
v -0.0625 2.266983 -1.4998
v -0.0625 2.295517 -1.4998
v -0.0001000017 1.938858 -1.46885
v -0.0625 1.938858 -1.46885
v -0.0001000017 2.266983 -1.46875
v -0.0625 2.266983 -1.46875
v -0.0001000017 2.295517 -1.4998
v 0.0624 1.938858 -1.46885
v 0.0624 2.266983 -1.46875
v 0.0624 2.295517 -1.4998
v 0.0624 2.266983 -1.4998
v -0.0625 2.313858 -1.4997
v -0.0625 2.342392 -1.4997
v -0.0001000017 2.342392 -1.4997
v 0.0624 2.342392 -1.4997
v 0.0624 2.313858 -1.4997
v 0.0624 1.148437 -1.4999
v -0.0001000017 1.148437 -1.4999
v 0.0624 1.351562 -1.4998
v -0.0625 1.148437 -1.4999
v -0.0625 1.351562 -1.4998

vt 0.140625 -0.015625
vt -1.390625 -0.015625
vt -0.04312503 0.168125
vt -1.206875 0.168125
vt 0.140625 1.515625
vt -0.04312503 1.331875
vt -1.390625 1.515625
vt -1.206875 1.331875
vt 1.390625 -0.015625
vt -0.140625 -0.015625
vt 1.206875 0.168125
vt 0.04312503 0.168125
vt 1.390625 1.515625
vt 1.206875 1.331875
vt -0.140625 1.515625
vt 0.04312506 1.331875
vt 0.125 -0.04312503
vt 0.125 -1.206875
vt 0.0626 -0.04312503
vt 0.0626 -1.206875
vt 0.125 1.331875
vt 0.125 0.168125
vt 0.0626 1.331875
vt 0.0626 0.168125
vt -0.125 1.313858
vt -0.125 1.342392
vt -0.0626 1.313858
vt -0.0626 1.342392
vt -0.125 -1.206875
vt -0.125 -0.04312503
vt -0.0626 -1.206875
vt -0.0626 -0.04312503
vt 0.0001000017 -0.04312503
vt 0.0001000017 -1.206875
vt 0.0001000017 1.331875
vt 0.0001000017 0.168125
vt -0.0001000017 1.313858
vt -0.0001000017 1.342392
vt -1.206775 0.7357332
vt -1.206775 0.7642668
vt -0.0626 0.1679121
vt -0.125 0.1679121
vt -0.0626 0.7355202
vt -0.125 0.7355202
vt -0.125 1.332088
vt -0.0626 1.332088
vt -0.125 0.7644798
vt -0.0626 0.7644798
vt -0.0001000017 0.1679121
vt -0.0001000017 0.7355202
vt -0.0001000017 1.332088
vt -0.0001000017 0.7644798
vt 1.206775 0.7642668
vt 1.206775 0.7357332
vt -0.625 0.7357332
vt -0.625 0.7642668
vt -0.0626 -0.625
vt -0.125 -0.625
vt 0.125 -0.625
vt 0.0626 -0.625
vt -0.0001000017 -0.625
vt 0.625 0.7642668
vt 0.625 0.7357332
vt 0 0
vt -0.0626 0.148145
vt -0.125 0.148145
vt -0.0626 0.35127
vt -0.125 0.35127
vt 0.125 0.763959
vt 0.0626 0.763959
vt 0.125 0.9670841
vt 0.0626 0.9670841
vt -0.0001000017 0.148145
vt -0.0001000017 0.35127
vt 0.0001000017 0.763959
vt 0.0001000017 0.9670841
vt -0.0626 0.9386771
vt -0.125 0.9386771
vt -0.0626 1.266802
vt -0.125 1.266802
vt 0.125 1.295326
vt 0.0626 1.295326
vt -0.0001000017 0.9386771
vt -0.0001000017 1.266802
vt 0.0001000017 1.295326
vt -0.0626 1.265713
vt -0.125 1.265713
vt -0.0626 1.312588
vt -0.125 1.312588
vt 0.125 1.294181
vt 0.0626 1.294181
vt 0.125 1.341056
vt 0.0626 1.341056
vt -0.0001000017 1.265713
vt -0.0001000017 1.312588
vt 0.0001000017 1.294181
vt 0.0001000017 1.341056
vt 0.0626 0.7358396
vt 0.0001000017 0.1485438
vt 0.0626 0.1485438
vt 0.6249 0.9388582
vt 0.6248 0.3515624
vt 0.6249 0.1484374
vt -0.6249 0.9388582
vt -0.6249 0.1484374
vt -0.6248 0.3515624
vt -0.0626 0.3516635
vt -0.0001000017 0.3516635
vt 0.125 0.7358396
vt 0.125 0.1485438
vt -0.125 0.3516635
vt -0.0001000017 -0.6249
vt -0.0626 -0.6249
vt -0.0001000017 -0.59385
vt -0.0626 -0.59385
vt 0.59375 0.3515624
vt 0.59385 0.1484374
vt -0.59385 0.1484374
vt -0.59375 0.3515624
vt -0.125 -0.6249
vt -0.125 -0.59385
vt -0.6248 1.266983
vt -0.59385 0.9388582
vt -0.59375 1.266983
vt 0.59385 0.9388582
vt 0.6248 1.266983
vt 0.59375 1.266983
vt -0.6247 1.313858
vt -0.59365 1.313858
vt 0.125 -0.6247
vt 0.0626 -0.6247
vt 0.125 -0.59365
vt 0.0626 -0.59365
vt -0.6247 1.342392
vt -0.59365 1.342392
vt 0.6247 1.342392
vt 0.6247 1.313858
vt 0.59365 1.342392
vt 0.59365 1.313858

vn -1 0 0
vn 0.9999999 -0.0004136237 0
vn 0 1 0
vn 0 0 -1
vn 0 0 1
vn 0 -1 0
vn -0.5 0 0
vn 0 0 0
vn 1 0 0
vn 0.5 0 0
vn 0 -0.0004923893 0.9999999
vn 0 0.0004923893 -0.9999999
vn 0 -0.002133683 0.9999977
vn 0 0.002133683 -0.9999977

g Cube
usemtl ProBuilderDefault
f 3/3/1 4/4/1 2/2/1 1/1/1
f 6/6/1 3/3/1 1/1/1 5/5/1
f 4/4/1 8/8/1 7/7/1 2/2/1
f 8/8/1 6/6/1 5/5/1 7/7/1
f 11/11/2 12/12/2 10/10/2 9/9/2
f 14/14/2 11/11/2 9/9/2 13/13/2
f 12/12/2 16/16/2 15/15/2 10/10/2
f 16/16/2 14/14/2 13/13/2 15/15/2
f 17/19/3 18/20/3 4/18/3 3/17/3
f 19/23/4 17/24/4 3/22/4 6/21/4
f 22/27/5 23/28/5 21/26/5 20/25/5
f 24/31/6 19/32/6 6/30/6 8/29/6
f 25/33/3 26/34/3 18/20/3 17/19/3
f 27/35/4 25/36/4 17/24/4 19/23/4
f 28/37/5 29/38/5 23/28/5 22/27/5
f 30/34/6 27/33/6 19/32/6 24/31/6
f 31/39/7 32/40/8 8/8/7 4/4/1
f 33/43/5 31/44/5 4/42/5 18/41/5
f 32/47/5 34/48/5 24/46/5 8/45/5
f 35/50/5 33/43/5 18/41/5 26/49/5
f 34/48/5 36/52/5 30/51/5 24/46/5
f 36/53/10 35/54/8 26/11/10 30/14/9
f 37/55/1 38/56/1 32/40/1 31/39/1
f 39/57/6 37/58/6 31/29/6 33/31/6
f 38/59/3 40/60/3 34/20/3 32/18/3
f 41/61/6 39/57/6 33/31/6 35/34/6
f 40/60/3 42/61/3 36/34/3 34/20/3
f 42/62/9 41/63/9 35/54/9 36/53/9
f 43/64/8 44/64/8 38/64/8 37/64/8
f 47/67/11 48/68/11 46/66/11 45/65/11
f 44/71/12 49/72/12 40/70/12 38/69/12
f 51/74/11 47/67/11 45/65/11 50/73/11
f 49/72/12 52/76/12 42/75/12 40/70/12
f 52/64/8 53/64/8 41/64/8 42/64/8
f 54/64/8 55/64/8 44/64/8 43/64/8
f 58/79/11 59/80/11 57/78/11 56/77/11
f 55/81/12 60/82/12 49/72/12 44/71/12
f 62/84/11 58/79/11 56/77/11 61/83/11
f 60/82/12 63/85/12 52/76/12 49/72/12
f 63/64/8 64/64/8 53/64/8 52/64/8
f 65/64/8 66/64/8 55/64/8 54/64/8
f 22/88/13 20/89/13 59/87/13 58/86/13
f 66/92/14 67/93/14 60/91/14 55/90/14
f 28/95/13 22/88/13 58/86/13 62/94/13
f 67/93/14 68/97/14 63/96/14 60/91/14
f 68/64/8 69/64/8 64/64/8 63/64/8
f 70/99/4 71/100/4 39/98/4 41/50/4
f 72/102/9 70/103/9 41/63/9 53/101/9
f 73/105/1 74/106/1 43/104/1 37/55/1
f 47/107/5 51/108/5 61/83/5 56/77/5
f 71/100/4 73/110/4 37/109/4 39/98/4
f 48/111/5 47/107/5 56/77/5 57/78/5
f 50/114/6 45/115/6 71/113/6 70/112/6
f 51/116/9 50/117/9 70/103/9 72/102/9
f 46/118/1 48/119/1 74/106/1 73/105/1
f 45/115/6 46/121/6 73/120/6 71/113/6
f 57/123/1 59/124/1 54/122/1 43/104/1
f 48/119/1 57/123/1 43/104/1 74/106/1
f 61/125/9 51/116/9 72/102/9 53/101/9
f 62/127/9 61/125/9 53/101/9 64/126/9
f 59/124/1 20/129/1 65/128/1 54/122/1
f 21/132/3 23/133/3 67/131/3 66/130/3
f 20/129/1 21/135/1 66/134/1 65/128/1
f 23/133/3 29/114/3 68/112/3 67/131/3
f 29/138/9 28/139/9 69/137/9 68/136/9
f 28/139/9 62/127/9 64/126/9 69/137/9

